<svg xmlns="http://www.w3.org/2000/svg" viewBox="0 0 24 24"><g transform="translate(276.104 -54.275) scale(3.77953)"><path fill="#bee4f5" d="m -71.715046,15.405388 c -0.43525,0 -0.79375,0.35851 -0.79375,0.79375 v 3.175 c 0,0.43524 0.3585,0.79375 0.79375,0.79375 h 3.175 c 0.43524,0 0.79375,-0.35851 0.79375,-0.79375 v -3.70417 a 0.26460979,0.26460979 0 0 0 -0.26459,-0.26458 z" color="#000" font-family="sans-serif" font-weight="400" overflow="visible" style="line-height:normal;font-variant-ligatures:normal;font-variant-position:normal;font-variant-caps:normal;font-variant-numeric:normal;font-variant-alternates:normal;font-variant-east-asian:normal;font-feature-settings:normal;font-variation-settings:normal;text-indent:0;text-align:start;text-decoration-line:none;text-decoration-style:solid;text-decoration-color:#000;text-transform:none;text-orientation:mixed;shape-padding:0;shape-margin:0;inline-size:0;isolation:auto;mix-blend-mode:normal"/><path fill="#ceeefb" d="m -71.715046,15.934558 h 3.43958 v 3.43958 c 0,0.14926 -0.11532,0.26458 -0.26458,0.26458 h -3.175 c -0.14926,0 -0.26459,-0.11532 -0.26459,-0.26458 v -3.175 c 0,-0.14926 0.11533,-0.26458 0.26459,-0.26458 z" color="#000" font-family="sans-serif" font-weight="400" overflow="visible" style="line-height:normal;font-variant-ligatures:normal;font-variant-position:normal;font-variant-caps:normal;font-variant-numeric:normal;font-variant-alternates:normal;font-variant-east-asian:normal;font-feature-settings:normal;font-variation-settings:normal;text-indent:0;text-align:start;text-decoration-line:none;text-decoration-style:solid;text-decoration-color:#000;text-transform:none;text-orientation:mixed;shape-padding:0;shape-margin:0;inline-size:0;isolation:auto;mix-blend-mode:normal"/><path fill="#f1c506" d="m -69.081838,15.617548 -1.497581,1.49759 c -0.0332,0.03331 -0.05693,0.07487 -0.06873,0.1204 l -0.264583,1.01338 c -0.05052,0.195251 0.127211,0.372984 0.322461,0.32246 l 1.013375,-0.26458 c 0.04553,-0.01179 0.08709,-0.03551 0.120406,-0.0687 l 1.494999,-1.49759 z" color="#000" font-family="sans-serif" font-weight="400" overflow="visible" style="line-height:normal;font-variant-ligatures:normal;font-variant-position:normal;font-variant-caps:normal;font-variant-numeric:normal;font-variant-alternates:normal;font-variant-east-asian:normal;font-feature-settings:normal;font-variation-settings:normal;text-indent:0;text-align:start;text-decoration-line:none;text-decoration-style:solid;text-decoration-color:#000;text-transform:none;text-orientation:mixed;shape-padding:0;shape-margin:0;inline-size:0;isolation:auto;mix-blend-mode:normal"/><path fill="#ed8972" d="m -68.149078,14.902878 c -0.135904,0 -0.271405,0.0513 -0.373621,0.15348 l -0.560689,0.56224 1.122928,1.12138 0.56069,-0.56069 c 0.204441,-0.204441 0.204441,-0.54332 0,-0.74776 l -0.375172,-0.37517 c -0.102213,-0.10222 -0.238233,-0.15348 -0.374136,-0.15348 z" color="#000" font-family="sans-serif" font-weight="400" overflow="visible" style="line-height:normal;font-variant-ligatures:normal;font-variant-position:normal;font-variant-caps:normal;font-variant-numeric:normal;font-variant-alternates:normal;font-variant-east-asian:normal;font-feature-settings:normal;font-variation-settings:normal;text-indent:0;text-align:start;text-decoration-line:none;text-decoration-style:solid;text-decoration-color:#000;text-transform:none;text-orientation:mixed;shape-padding:0;shape-margin:0;inline-size:0;isolation:auto;mix-blend-mode:normal"/></g></svg>