<svg xmlns="http://www.w3.org/2000/svg" viewBox="0 0 24 24"><path fill="#303C42" d="M23 7c0-.534-.208-1.036-.586-1.414l-1-1c-.632-.632-1.652-.73-2.414-.302V4c0-1.103-.897-2-2-2h-2.092c-.207-.58-.757-1-1.408-1h-1.51C11.52.377 10.78 0 10 0S8.48.377 8.01 1H6.5c-.651 0-1.2.42-1.408 1H3c-1.103 0-2 .897-2 2v18c0 1.103.897 2 2 2h14c1.103 0 2-.897 2-2V11.789l3.414-3.375C22.792 8.036 23 7.534 23 7z"/><path fill="#FFCA28" d="M12.14 17.154l-.193-.387a.5.5 0 0 0-.223-.224l-.38-.19L19.5 8.199l.846.845-8.205 8.11z"/><path d="M12.14 17.154l-.193-.387a.5.5 0 0 0-.223-.224l-.38-.19L19.5 8.199l.846.845-8.205 8.11z" opacity=".1"/><path fill="#FFCA28" d="M10.637 15.646l-.19-.38A.5.5 0 0 0 10 14.99h-.302l8.25-8.345.845.845-8.156 8.156z"/><path fill="#FAFAFA" d="M7.692 19.475l-.177-.176L8.84 15.99h.852l.362.724a.5.5 0 0 0 .223.224l.851.425.265.53-.172.17-3.528 1.412z"/><path fill="#D32F2F" d="M21.709 7.696l-.652.644-2.407-2.406.643-.65a1.024 1.024 0 0 1 1.414 0l1 1c.189.188.293.44.293.706s-.104.519-.291.706z"/><path d="M7.692 19.475l3.528-1.411.172-.17-.265-.531-.85-.425c-.049-.024-.075-.074-.112-.112l-2.561 2.561.088.088zM21.207 5.783l-1.353 1.354 1.203 1.203.652-.644c.187-.187.291-.438.291-.706s-.104-.518-.293-.707l-.5-.5z" opacity=".1"/><path fill="#303C42" d="M6 2.5a.5.5 0 0 1 .5-.5h1.777a.499.499 0 0 0 .432-.249 1.485 1.485 0 0 1 2.582 0 .499.499 0 0 0 .432.249H13.5a.5.5 0 0 1 .5.5V3c0 .551-.448 1-1 1H7c-.552 0-1-.449-1-1v-.5z"/><path fill="#FFF" d="M18 22c0 .551-.448 1-1 1H3c-.552 0-1-.449-1-1V4c0-.551.448-1 1-1h2c0 1.103.897 2 2 2h6c1.103 0 2-.897 2-2h2c.552 0 1 .449 1 1v1.179l-9.855 9.97a.494.494 0 0 0-.109.165l-2 5a.5.5 0 0 0 .65.65l5-2a.503.503 0 0 0 .166-.109L18 12.778V22z"/><path fill="#78909C" d="M6 2.5a.5.5 0 0 1 .5-.5h1.777a.5.5 0 0 0 .432-.249 1.483 1.483 0 0 1 2.582 0 .5.5 0 0 0 .432.249H13.5a.5.5 0 0 1 .5.5V3c0 .551-.449 1-1 1H7c-.551 0-1-.449-1-1v-.5z"/><path d="M13.5 2c0 .551-.449 1-1 1h-6a.97.97 0 0 1-.5-.154V3c0 .551.449 1 1 1h6c.551 0 1-.449 1-1v-.5a.5.5 0 0 0-.5-.5z" opacity=".1"/><linearGradient id="a" x1="9.06" x2="15.527" y1="1.252" y2="7.719" gradientUnits="userSpaceOnUse"><stop offset="0" stop-opacity=".1"/><stop offset="1" stop-opacity="0"/></linearGradient><path fill="url(#a)" d="M18 4c0-.551-.448-1-1-1h-2c0 1.103-.897 2-2 2H7c-.472 0-.9-.171-1.243-.445l6.467 6.467L18 5.179V4z"/><linearGradient id="b" x1="11.129" x2="17.836" y1="15.871" y2="22.578" gradientUnits="userSpaceOnUse"><stop offset="0" stop-opacity=".1"/><stop offset="1" stop-opacity="0"/></linearGradient><path fill="url(#b)" d="M11.686 18.964l-5 2a.5.5 0 0 1-.54-.11L8.293 23H17c.552 0 1-.449 1-1v-9.222l-6.148 6.077a.503.503 0 0 1-.166.11z"/><linearGradient id="c" x1="-1.009" x2="21.009" y1="7.866" y2="18.134" gradientUnits="userSpaceOnUse"><stop offset="0" stop-color="#FFF" stop-opacity=".2"/><stop offset="1" stop-color="#FFF" stop-opacity="0"/></linearGradient><path fill="url(#c)" d="M23 7c0-.534-.208-1.036-.586-1.414l-1-1c-.632-.632-1.652-.73-2.414-.302V4c0-1.103-.897-2-2-2h-2.092c-.207-.58-.757-1-1.408-1h-1.51C11.52.377 10.78 0 10 0S8.48.377 8.01 1H6.5c-.651 0-1.2.42-1.408 1H3c-1.103 0-2 .897-2 2v18c0 1.103.897 2 2 2h14c1.103 0 2-.897 2-2V11.789l3.414-3.375C22.792 8.036 23 7.534 23 7z"/></svg>