<svg xmlns="http://www.w3.org/2000/svg" width="32" height="32" viewBox="0 0 32 32"><g transform="translate(-220.2 -1696.337)"><g transform="rotate(135 232.223 1714.41)"><path style="isolation:auto;mix-blend-mode:normal" fill="#fd5b6a" d="m 229.49998,1723.5742 -4.2039,0 0,-21.3986 4.2039,0 z" color="#000" overflow="visible"/><path style="isolation:auto;mix-blend-mode:normal" fill="none" stroke="#000" stroke-dashoffset="1.5" stroke-linecap="round" stroke-linejoin="round" d="m 229.49998,1702.1756 -4.2039,0 2.102,-4.3135 z" color="#000" overflow="visible"/><path style="isolation:auto;mix-blend-mode:normal" fill="#fe2b70" d="m 229.50076,1723.574 -8.3e-4,-21.3976 -4.20426,-3e-4 -4.7e-4,1.6887 2.8545,2e-4 1e-4,19.708 z" color="#000" overflow="visible"/><path style="isolation:auto;mix-blend-mode:normal" fill="#fff" d="m 229.50076,1723.574 -8.3e-4,-21.3976 -4.20426,-3e-4 6.3e-4,1.1096 3.2792,1e-4 4.1e-4,20.2879 z" color="#000" overflow="visible"/><path style="isolation:auto;mix-blend-mode:normal" fill="none" stroke="#000" stroke-dashoffset="1.5" stroke-linecap="round" stroke-linejoin="round" d="m 229.49998,1723.8622 -4.2039,0 0,-21.6866 4.2039,0 z" color="#000" overflow="visible"/><g transform="translate(0 .5)"><path style="isolation:auto;mix-blend-mode:normal" fill="#f6ec54" d="m 229.49998,1723.3622 2e-5,1.6177 c -4e-5,0.896 -0.70315,1.6175 -1.57643,1.6175 l -1.05099,0 c -0.87328,0 -1.57647,-0.1314 -1.57648,-1.6175 l -1e-5,-1.6177 z" color="#000" overflow="visible"/><path style="isolation:auto;mix-blend-mode:normal" fill="#f8d459" d="m 229.23153,1725.8859 c 0.16964,-0.2581 0.26786,-0.5703 0.26786,-0.9064 l 0.002,-1.617 -4.20426,-3e-4 -7e-4,1.3188 3.4629,3e-4 -0.002,1.617 c -2e-5,0.018 -0.005,0.035 -0.005,0.053 0.18957,-0.1205 0.355,-0.2759 0.47947,-0.4652 z" color="#000" overflow="visible"/><path style="isolation:auto;mix-blend-mode:normal" fill="#fff" d="m 229.23153,1725.8859 c 0.16964,-0.2581 0.26786,-0.5703 0.26786,-0.9064 l 0.002,-1.617 -4.20426,-3e-4 4.1e-4,0.7398 3.78771,0 -0.002,1.6171 c -1e-5,0.1457 -0.0237,0.2837 -0.0587,0.4178 0.0767,-0.077 0.1468,-0.1596 0.20698,-0.251 z" color="#000" overflow="visible"/><path style="isolation:auto;mix-blend-mode:normal" fill="none" stroke="#000" stroke-dashoffset="1.5" stroke-linecap="round" stroke-linejoin="round" d="m 229.49998,1723.3622 2e-5,1.6177 c -4e-5,0.896 -0.70315,1.6175 -1.57643,1.6175 l -1.05099,0 c -0.87328,0 -1.57648,-0.7371 -1.57648,-1.6175 l -1e-5,-1.6177 z" color="#000" overflow="visible"/></g><path fill="none" stroke="#000" d="m 227.3797,1702.4317 0.0732,21.4737"/></g><g transform="rotate(45 -202.328 1626.495)"><path style="isolation:auto;mix-blend-mode:normal" fill="#f4606e" d="m 166.9188,1364.3464 0,-1.6378 3.07713,0 0,1.6117 m 0,10.1469 0,13.2364 -3.07713,0 0,-13.2364" color="#000" overflow="visible"/><rect stroke-dashoffset="1.5" style="isolation:auto;mix-blend-mode:normal" width="1.743" height="2" x="167.586" y="1387.706" fill="#fff" stroke="#000" stroke-linecap="round" stroke-linejoin="round" color="#000" overflow="visible"/><path fill="none" stroke="#000" d="m 168.45736,1390.2061 0,1.9591"/><path style="isolation:auto;mix-blend-mode:normal" fill="#fff" d="m 166.9188,1364.3464 0,-1.6378 1.07713,0 0,1.6117 m 0,10.1469 0,13.2364 -1.07713,0 0,-13.2364" color="#000" overflow="visible"/><path style="isolation:auto;mix-blend-mode:normal" fill="#3ddef0" d="m 166.919,1364.7061 2.9,0 0,10 -2.9,0 z" color="#000" overflow="visible"/><path style="isolation:auto;mix-blend-mode:normal" fill="#f89963" d="m 169.99593,1364.3464 0,-1.6378 -1.07713,0 0,1.6117 m 0,10.1469 0,13.2364 1.07713,0 0,-13.2364" color="#000" overflow="visible"/><path style="isolation:auto;mix-blend-mode:normal" fill="#fff" d="m 166.919,1364.706 1,0 0,10 -1,0 z" color="#000" overflow="visible"/><path style="isolation:auto;mix-blend-mode:normal" fill="#30a2f2" d="m 169.919,1364.706 -1,0 0,10 1,0 z" color="#000" overflow="visible"/><path style="isolation:auto;mix-blend-mode:normal" fill="none" stroke="#000" stroke-dashoffset="1.5" stroke-linecap="round" stroke-linejoin="round" d="M166.9189 1364.7061l3.08857 0 0 10-3.08857 0zM166.9189 1364.646l0-1.9374 3.08857 0 0 1.9113m0 10.1472l0 3.2341 0 3.2342m0 1.617l0 1.6171 0 3.2341-3.08857 0 0-12.9365" color="#000" overflow="visible"/><path fill="none" stroke="#000" stroke-linecap="round" stroke-linejoin="round" d="m 169.938,1366.7064 -3.42229,0 -1.51471,0 0,5.9928"/></g></g></svg>